<?xml version="1.0" encoding="utf-8"?>
<!-- Generator: Adobe Illustrator 21.0.0, SVG Export Plug-In . SVG Version: 6.00 Build 0)  -->
<svg version="1.1" id="Capa_1" xmlns="http://www.w3.org/2000/svg" xmlns:xlink="http://www.w3.org/1999/xlink" x="0px" y="0px"
	 viewBox="0 0 841.9 595.3" style="enable-background:new 0 0 841.9 595.3;" xml:space="preserve">
<style type="text/css">
	.st0{fill:#FCC11D;}
	.st1{fill:#898585;}
	.st2{stroke:#010202;stroke-width:3;stroke-miterlimit:10;}
	.st3{fill:#E6224C;stroke:#E6224C;stroke-width:3;stroke-miterlimit:10;}
</style>
<g>
	<path class="st0" d="M421.9,93.6c-102.6,0-187.8,83.5-187.8,186.1c0,77.9,44.8,146.8,118.8,174v99.6c0,6,8.3,13.8,14.3,13.8h10.4
		v19c0,6.1,5.4,5.6,11.5,5.6h65.6c6.1,0,9.1,0.5,9.1-5.6v-19h12.8c6,0,11.9-7.8,11.9-13.8v-99.6c74-27.2,120-96.2,120-174
		C608.5,177.1,524.5,93.6,421.9,93.6L421.9,93.6z"/>
	<path class="st0" d="M454.7,542.5c-6,0-15.5,4.8-15.5,10.9v26.1h-37v-26.1c0-6-7.1-10.9-13.1-10.9h-11.5v-49.3h86.3v49.3H454.7z"/>
	<path class="st0" d="M472.3,435.6c-4.5,1.4-8.5,5.7-8.5,10.4v22.5h-86.3V446c0-4.7-2.8-8.9-7.2-10.4
		c-67.5-22.2-112.7-84.9-112.7-155.9c0-90.5,73.7-164.2,164.3-164.2c90.5,0,163.8,73.7,163.8,164.2
		C585.6,350.7,539.8,413.4,472.3,435.6L472.3,435.6z"/>
	<path class="st0" d="M473.2,435.6"/>
	<path class="st0" d="M420.7,71.7c6,0,6.2-4.9,6.2-11V17c0-6-0.1-11-6.2-11c-6,0-6.2,4.9-6.2,11v43.8
		C414.5,66.8,414.7,71.7,420.7,71.7L420.7,71.7z M421.9,71.7"/>
	<path class="st0" d="M684.6,271.2h-43.8c-6,0-11,6.3-11,12.3s4.9,12.3,11,12.3h43.8c6,0,11-6.3,11-12.3S690.7,271.2,684.6,271.2
		L684.6,271.2z M684.6,268.8"/>
	<path class="st0" d="M203,271.2h-43.8c-6,0-11,6.3-11,12.3s4.9,12.3,11,12.3H203c6,0,11-6.3,11-12.3S209,271.2,203,271.2L203,271.2
		z M203,268.8"/>
	<path class="st0" d="M600,86.2l-31,31c-4.3,4.3-4.3,11.2,0,15.4c2.1,2.1,4.9,3.2,7.7,3.2c2.8,0,5.6-1.1,7.8-3.2l31-31
		c4.3-4.3,4.3-11.2,0-15.5C611.1,81.9,604.2,81.9,600,86.2L600,86.2z M600,86.2"/>
	<path class="st0" d="M259.4,426.8l-31,31c-4.3,4.3-4.3,11.2,0,15.4c2.1,2.1,4.9,3.2,7.7,3.2c2.8,0,5.6-1.1,7.7-3.2l31-31
		c4.3-4.3,4.3-11.2,0-15.4C270.5,422.5,263.6,422.5,259.4,426.8L259.4,426.8z M259.4,426.8"/>
	<path class="st0" d="M584.5,426.8c-4.3-4.3-11.2-4.3-15.4,0c-4.3,4.3-4.3,11.2,0,15.4l31,31c2.1,2.1,4.9,3.2,7.7,3.2
		c2.8,0,5.6-1.1,7.7-3.2c4.3-4.3,4.3-11.2,0-15.4L584.5,426.8z M584.5,426.8"/>
	<path class="st0" d="M259.4,132.6c2.1,2.1,4.9,3.2,7.8,3.2c2.8,0,5.6-1.1,7.7-3.2c4.3-4.3,4.3-11.2,0-15.4l-31-31
		c-4.3-4.3-11.2-4.3-15.4,0c-4.3,4.3-4.3,11.2,0,15.5L259.4,132.6z M259.4,132.6"/>
	<path class="st1" d="M487.3,567.2H354.1c-0.7,0-1.3-0.6-1.3-1.3v-83.8c0-0.7,0.6-1.3,1.3-1.3h133.1c0.7,0,1.3,0.6,1.3,1.3v83.8
		C488.5,566.6,488,567.2,487.3,567.2z"/>
</g>
<g>
	<path class="st2" d="M328.9,395.5c-0.2-7.4-0.7-17.5-1.3-30.4c-0.7-12.9-1.1-24.7-1.5-35.6c-0.3-10.9-0.5-21.1-0.5-30.7
		c0-1.5-0.1-5.3-0.2-11.3c-0.1-6-0.1-10.9,0-14.7c0.1-3.8,0.3-8.7,0.5-14.5c0.2-5.9,0.6-11.5,1.1-17c0.5-5.4,1.2-10.6,2.1-15.4
		c6.5-33.3,21.6-51.4,45.1-54.3c5.7-0.7,11.3,0.2,17,2.6c5.7,2.4,10.3,5.8,14.1,10.1c6.8,8.5,12.3,22.6,16.7,42.2
		c3.7,16.1,6.5,36.2,8.5,60.1c2.6,30.7,3.9,67.6,3.9,110.5c0,3.3-1.6,4.9-4.9,4.9c-3.3,0-4.9-1.6-4.9-4.9c0-31.8-0.7-59.3-2-82.4
		c-9.6,0-24,0.4-43.3,1.1c-19.3,0.8-33.8,1.1-43.6,1.1c0.2,9.6,0.7,23.3,1.5,41c0.8,17.8,1.3,30.2,1.5,37.4c0,1.3-0.4,2.5-1.3,3.4
		c-0.9,1-2,1.5-3.4,1.5c-1.4,0-2.6-0.4-3.6-1.3C329.4,398.3,328.9,397.1,328.9,395.5z M335.5,307.3c9.8,0,24.4-0.4,43.6-1.1
		c19.3-0.8,33.6-1.1,43-1.1c-0.2-6.1-0.7-11.9-1.3-17.3c-2-23.5-4.7-43.2-8.2-58.8c-4.1-18.3-9.2-30.9-15-37.9
		c-2.6-3.3-5.9-5.8-10-7.5c-4-1.7-8-2.4-11.9-2c-19,2.2-31.2,17.5-36.6,46.1c-0.9,4.8-1.6,9.8-2.1,14.9c-0.5,5.1-0.9,10.5-1.1,16.2
		c-0.2,5.7-0.4,10.4-0.5,14.1c-0.1,3.7-0.1,8.6,0,14.7c0.1,6.1,0.2,9.9,0.2,11.4V307.3z"/>
	<path class="st2" d="M532.3,206.9c-3.1-8.3-9-15-18-20.1c-8.9-5.1-18.2-7.8-27.8-8c-9.6,0-17,2.5-22.2,7.5
		c-5.5,5.7-7.3,13.8-5.6,24.5c0.2,1.1,0.7,2.3,1.3,3.6l1.3,2.9c0.2,0.9,0.9,2.1,2.1,3.6c1.2,1.5,2,2.5,2.5,2.9l3.3,3.3
		c1.7,2,2.7,3.2,2.9,3.6l12.4,12.7l12.1,12.1l11.8,11.4l11.1,11.8c3,3.5,6.2,7.5,9.5,12.1c3.3,4.6,6,9,8.2,13.2
		c2.2,4.2,4.2,9,6,14.4c1.8,5.3,3.2,10.8,4.1,16.3c0.9,5.6,1.3,11.7,1.3,18.5c0,6.8-0.5,13.9-1.6,21.6c-1.3,9.4-5.3,16.8-11.9,22.2
		c-6.7,5.4-14.5,8.8-23.7,10.1c-8.5,1.3-17.1,0.7-25.7-1.8c-8.6-2.5-15.6-6.8-21.1-12.9c-5.7-6.3-10.3-13.3-13.9-21.1
		c-3.6-7.7-6.1-16.1-7.5-25.2c-1.4-9-2.3-16.9-2.8-23.7c-0.4-6.8-0.7-15-0.7-24.8c0-3.3,1.6-4.9,4.9-4.9c3.3,0,4.9,1.6,4.9,4.9
		c0,20.1,1.4,37.2,4.3,51.5c2.8,14.3,8.8,26.5,18,36.8c4.1,4.6,9.8,8,16.8,10.1c7.1,2.2,14.2,2.7,21.4,1.6
		c7.2-1.1,13.3-3.7,18.3-7.8c5-4.1,8-9.6,8.8-16.3c1.1-7,1.6-13.6,1.6-19.8c0-6.2-0.3-11.9-1-17c-0.7-5.1-1.9-10.1-3.6-15
		c-1.7-4.9-3.6-9.3-5.6-13.1c-2-3.8-4.5-7.8-7.5-12.1c-3.1-4.3-6.1-8-9.2-11.3l-10.8-11.1l-11.1-11.1c-3.7-3.5-7.8-7.6-12.4-12.4
		l-12.8-13.4c-0.2-0.2-1.1-1.2-2.8-2.9c-1.6-1.7-2.8-3-3.4-3.9l-3.3-3.6c-1.3-1.7-2.3-3.2-2.9-4.4c-0.7-1.2-1.3-2.7-2-4.6
		c-0.7-1.8-1.2-3.8-1.6-5.7c-2.4-13.9,0.4-24.8,8.5-32.7c7.2-7,16.9-10.5,29.1-10.5c11.3,0.2,22.3,3.4,33,9.6
		c10.7,6.2,18,14.5,21.9,25c0.4,1.1,0.4,2.3-0.2,3.6c-0.5,1.3-1.4,2.2-2.6,2.6c-1.2,0.4-2.5,0.4-3.8-0.2
		C533.6,209.2,532.7,208.2,532.3,206.9z"/>
	<g>
		<path class="st3" d="M311.7,186.9c-0.1-3.3-0.1-6.4-0.1-9.1c0-3.3-1.6-4.9-4.9-4.9c-3.3,0-4.9,1.6-4.9,4.9c0,4.3,0.1,9.5,0.2,15.5
			L311.7,186.9z"/>
		<path class="st2" d="M314.7,323.5c0.1-35.4-0.1-59.1-0.5-71.1c-0.2-4.6-0.7-15.7-1.5-33.5c-0.2-5.6-0.4-10.7-0.6-15.4l-9.6,6.4
			c0.1,3,0.2,6,0.4,9.2c0.8,17.9,1.3,29,1.5,33.3c0.4,17.9,0.6,41.7,0.5,71.4c-0.1,29.7,0.4,53.6,1.5,71.4c0,1.3,0.5,2.4,1.6,3.3
			c1.1,0.9,2.3,1.3,3.6,1.3c1.3,0,2.4-0.5,3.3-1.6c0.9-1.1,1.3-2.3,1.3-3.6C315.1,382.6,314.6,358.9,314.7,323.5z"/>
	</g>
</g>
</svg>
